#!OML:ASF G:\JayActor3\Patient Classification 1\Patient 1\Session 6\male.ASF
:FULLY-SPECIFIED
:DEGREES
1192
root 4.20093 16.0216 -24.165 286.125 -86.3227 -292.399
lowerback 11.3558 0.239661 9.56179
upperback -0.520089 1.79159 5.84293
thorax -6.86092 0.548163 0.547634
lowerneck -6.29178 -5.05776 1.22659
upperneck 21.4039 -4.62261 -17.5027
head 7.06655 -4.01152 -6.39664
rclavicle -3.97569e-016 2.54444e-014
rhumerus -34.3004 -11.4823 -57.3298
rradius 72.5368
rwrist -22.5568
rhand -28.0943 12.8333
rfingers 7.12502
rthumb -1.477 -17.1414
lclavicle -3.97569e-016 2.54444e-014
lhumerus -41.4341 -10.3825 92.3136
lradius 35.7724
lwrist 22.7686
lhand -8.97347 8.42219
lfingers 7.12502
lthumb 16.972 37.7007
rfemur -13.2118 -9.2682 17.3262
rtibia 46.3677
rfoot -30.7648 -17
rtoes 5.49669
lfemur -8.50145 10.9899 -15.054
ltibia 31.6938
lfoot -12.0687 -2.83687
ltoes -1.74636
1193
root 4.20342 16.0136 -24.1614 287.822 -86.2881 -294.127
lowerback 11.3814 0.261052 9.62072
upperback -0.51511 1.8312 5.87404
thorax -6.86732 0.564916 0.541848
lowerneck -6.27509 -5.06105 1.26863
upperneck 21.4263 -4.62006 -17.5728
head 7.06694 -4.01419 -6.42824
rclavicle -1.05356e-014 -3.81667e-014
rhumerus -34.4404 -11.7579 -57.2635
rradius 72.8439
rwrist -22.4398
rhand -28.2306 12.9634
rfingers 7.12502
rthumb -1.6086 -17.0103
lclavicle -1.05356e-014 -3.81667e-014
lhumerus -41.4713 -10.4649 92.4005
lradius 35.7604
lwrist 22.748
lhand -8.94255 8.43033
lfingers 7.12502
lthumb 17.0017 37.7063
rfemur -13.2553 -9.40417 17.2937
rtibia 46.5165
rfoot -30.8011 -16.9703
rtoes 5.43264
lfemur -8.56282 10.9536 -15.0639
ltibia 31.8115
lfoot -12.1995 -2.90379
ltoes -1.75224
1194
root 4.20567 16.0054 -24.158 289.441 -86.2501 -295.785
lowerback 11.4069 0.282146 9.67247
upperback -0.50785 1.86929 5.9073
thorax -6.87152 0.581327 0.542511
lowerneck -6.24904 -5.06158 1.30497
upperneck 21.4415 -4.6141 -17.6424
head 7.0639 -4.01503 -6.4577
rclavicle -7.15625e-015 -9.54166e-015
rhumerus -34.5692 -12.013 -57.2038
rradius 73.1367
rwrist -22.3284
rhand -28.3783 13.1015
rfingers 7.12502
rthumb -1.75129 -16.8711
lclavicle -7.15625e-015 -9.54166e-015
lhumerus -41.518 -10.5507 92.4948
lradius 35.753
lwrist 22.7278
lhand -8.90999 8.43693
lfingers 7.12502
lthumb 17.0331 37.7102
rfemur -13.2874 -9.53749 17.2597
rtibia 46.6644
rfoot -30.8406 -16.9402
rtoes 5.36636
lfemur -8.60804 10.9255 -15.0696
ltibia 31.9214
lfoot -12.3283 -2.97648
ltoes -1.76818
1195
root 4.20776 15.9969 -24.1545 291.018 -86.2152 -297.41
lowerback 11.434 0.302324 9.72773
upperback -0.500105 1.90684 5.94328
thorax -6.87613 0.5973 0.544254
lowerneck -6.21552 -5.06242 1.33192
upperneck 21.4535 -4.60828 -17.7115
head 7.05886 -4.01632 -6.48483
rclavicle -1.53064e-014 2.54444e-014
rhumerus -34.6896 -12.2523 -57.149
rradius 73.4148
rwrist -22.1974
rhand -28.4528 13.2228
rfingers 7.12502
rthumb -1.82321 -16.7492
lclavicle -1.53064e-014 2.54444e-014
lhumerus -41.5729 -10.6414 92.5985
lradius 35.7434
lwrist 22.7112
lhand -8.88993 8.44755
lfingers 7.12502
lthumb 17.0524 37.7191
rfemur -13.3068 -9.66944 17.2295
rtibia 46.8079
rfoot -30.8843 -16.9049
rtoes 5.30976
lfemur -8.64054 10.9071 -15.0654
ltibia 32.028
lfoot -12.4556 -3.05319
ltoes -1.81148
1196
root 4.20953 15.9885 -24.1512 292.571 -86.184 -299.018
lowerback 11.4628 0.321513 9.78182
upperback -0.493844 1.94344 5.98338
thorax -6.88356 0.612723 0.551241
lowerneck -6.17206 -5.06145 1.34941
upperneck 21.4644 -4.60003 -17.777
head 7.05237 -4.01661 -6.50853
rclavicle 2.18663e-015 3.18055e-014
rhumerus -34.8002 -12.4753 -57.0982
rradius 73.6758
rwrist -22.0414
rhand -28.4123 13.3228
rfingers 7.12502
rthumb -1.78414 -16.6495
lclavicle 2.18663e-015 3.18055e-014
lhumerus -41.636 -10.735 92.7124
lradius 35.7262
lwrist 22.6954
lhand -8.89076 8.45466
lfingers 7.12502
lthumb 17.0516 37.7263
rfemur -13.3138 -9.79708 17.2064
rtibia 46.9441
rfoot -30.9271 -16.8742
rtoes 5.24714
lfemur -8.6656 10.9004 -15.0495
ltibia 32.1356
lfoot -12.5799 -3.13499
ltoes -1.88899
1197
root 4.21106 15.9802 -24.1479 294.178 -86.1601 -300.686
lowerback 11.4912 0.33677 9.84146
upperback -0.488862 1.97571 6.02908
thorax -6.89245 0.625714 0.561972
lowerneck -6.12707 -5.0567 1.35952
upperneck 21.4824 -4.58521 -17.8429
head 7.04897 -4.01488 -6.53123
rclavicle 1.19271e-015 -1.11319e-013
rhumerus -34.9007 -12.6814 -57.0529
rradius 73.925
rwrist -21.8579
rhand -28.2614 13.4037
rfingers 7.12502
rthumb -1.6384 -16.5697
lclavicle 1.19271e-015 -1.11319e-013
lhumerus -41.7079 -10.8255 92.8342
lradius 35.7033
lwrist 22.6794
lhand -8.91072 8.45025
lfingers 7.12502
lthumb 17.0324 37.7236
rfemur -13.3075 -9.92921 17.1935
rtibia 47.0709
rfoot -30.9663 -16.843
rtoes 5.18072
lfemur -8.68866 10.8992 -15.0182
ltibia 32.2501
lfoot -12.7013 -3.2203
ltoes -1.98751
